<?xml version="1.0" encoding="UTF-8" standalone="no"?>
<!DOCTYPE svg PUBLIC "-//W3C//DTD SVG 1.1//EN" "http://www.w3.org/Graphics/SVG/1.1/DTD/svg11.dtd">
<svg width="100%" height="100%" viewBox="0 0 852 852" version="1.1" xmlns="http://www.w3.org/2000/svg" xmlns:xlink="http://www.w3.org/1999/xlink" xml:space="preserve" xmlns:serif="http://www.serif.com/" style="fill-rule:evenodd;clip-rule:evenodd;stroke-linecap:round;stroke-linejoin:round;stroke-miterlimit:1.5;">
    <g transform="matrix(1.81604,0.627286,-0.627286,1.81604,750.649,-63.5476)">
        <path d="M-76.749,94.81C-187.798,94.81 -277.821,184.833 -277.821,295.882C-277.821,331.177 -268.53,365.851 -250.882,396.417L-76.749,295.882L-76.749,94.81Z" style="fill:none;stroke:white;stroke-width:27.76px;"/>
    </g>
    <g transform="matrix(-1.45127,1.2591,-1.2591,-1.45127,686.811,951.753)">
        <path d="M-76.749,94.81C-187.798,94.81 -277.821,184.833 -277.821,295.882C-277.821,331.177 -268.53,365.851 -250.882,396.417L-76.749,295.882L-76.749,94.81Z" style="fill:none;stroke:white;stroke-width:27.76px;"/>
    </g>
    <g transform="matrix(-0.364776,-1.88638,1.88638,-0.364776,-160.491,388.866)">
        <path d="M-76.749,94.81C-187.798,94.81 -277.821,184.833 -277.821,295.882C-277.821,331.177 -268.53,365.851 -250.882,396.417L-76.749,295.882L-76.749,94.81Z" style="fill:none;stroke:white;stroke-width:27.76px;"/>
    </g>
</svg>
